<mxfile host="65bd71144e">
    <diagram id="oKyxzHDayaN0CAhAsXDF" name="非西醫院領域模型">
        <mxGraphModel dx="118" dy="319" grid="1" gridSize="10" guides="1" tooltips="1" connect="1" arrows="1" fold="1" page="1" pageScale="1" pageWidth="827" pageHeight="1169" math="0" shadow="0">
            <root>
                <mxCell id="0"/>
                <mxCell id="1" parent="0"/>
                <mxCell id="96" value="非西醫院" style="rounded=0;whiteSpace=wrap;html=1;fontSize=14;" parent="1" vertex="1">
                    <mxGeometry x="60" y="640" width="120" height="40" as="geometry"/>
                </mxCell>
                <mxCell id="97" value="診間" style="rounded=0;whiteSpace=wrap;html=1;fontSize=14;" parent="1" vertex="1">
                    <mxGeometry x="60" y="760" width="120" height="40" as="geometry"/>
                </mxCell>
                <mxCell id="98" value="時段" style="rounded=0;whiteSpace=wrap;html=1;fontSize=14;" parent="1" vertex="1">
                    <mxGeometry x="60" y="870" width="120" height="40" as="geometry"/>
                </mxCell>
                <mxCell id="99" value="" style="endArrow=none;html=1;fontSize=14;entryX=0.5;entryY=1;entryDx=0;entryDy=0;exitX=0.5;exitY=0;exitDx=0;exitDy=0;" parent="1" source="97" target="96" edge="1">
                    <mxGeometry width="50" height="50" relative="1" as="geometry">
                        <mxPoint x="95" y="740" as="sourcePoint"/>
                        <mxPoint x="145" y="690" as="targetPoint"/>
                    </mxGeometry>
                </mxCell>
                <mxCell id="100" value="包含" style="text;html=1;align=center;verticalAlign=middle;resizable=0;points=[];autosize=1;strokeColor=none;fillColor=none;fontSize=14;" parent="1" vertex="1">
                    <mxGeometry x="100" y="710" width="40" height="20" as="geometry"/>
                </mxCell>
                <mxCell id="102" value="1..*" style="text;html=1;align=center;verticalAlign=middle;resizable=0;points=[];autosize=1;strokeColor=none;fillColor=none;fontSize=14;" parent="1" vertex="1">
                    <mxGeometry x="90" y="740" width="40" height="20" as="geometry"/>
                </mxCell>
                <mxCell id="103" value="" style="endArrow=none;html=1;fontSize=14;entryX=0.5;entryY=1;entryDx=0;entryDy=0;exitX=0.5;exitY=0;exitDx=0;exitDy=0;" parent="1" source="98" target="97" edge="1">
                    <mxGeometry width="50" height="50" relative="1" as="geometry">
                        <mxPoint x="95" y="870" as="sourcePoint"/>
                        <mxPoint x="145" y="820" as="targetPoint"/>
                    </mxGeometry>
                </mxCell>
                <mxCell id="104" value="擁有" style="text;html=1;align=center;verticalAlign=middle;resizable=0;points=[];autosize=1;strokeColor=none;fillColor=none;fontSize=14;" parent="1" vertex="1">
                    <mxGeometry x="100" y="830" width="40" height="20" as="geometry"/>
                </mxCell>
                <mxCell id="105" value="1" style="text;html=1;align=center;verticalAlign=middle;resizable=0;points=[];autosize=1;strokeColor=none;fillColor=none;fontSize=14;" parent="1" vertex="1">
                    <mxGeometry x="100" y="680" width="20" height="20" as="geometry"/>
                </mxCell>
                <mxCell id="106" value="1" style="text;html=1;align=center;verticalAlign=middle;resizable=0;points=[];autosize=1;strokeColor=none;fillColor=none;fontSize=14;" parent="1" vertex="1">
                    <mxGeometry x="100" y="800" width="20" height="20" as="geometry"/>
                </mxCell>
                <mxCell id="107" value="1..*" style="text;html=1;align=center;verticalAlign=middle;resizable=0;points=[];autosize=1;strokeColor=none;fillColor=none;fontSize=14;" parent="1" vertex="1">
                    <mxGeometry x="80" y="850" width="40" height="20" as="geometry"/>
                </mxCell>
                <mxCell id="108" value="" style="endArrow=none;html=1;fontSize=14;" parent="1" edge="1">
                    <mxGeometry width="50" height="50" relative="1" as="geometry">
                        <mxPoint x="120" y="930" as="sourcePoint"/>
                        <mxPoint x="270" y="930" as="targetPoint"/>
                    </mxGeometry>
                </mxCell>
                <mxCell id="109" value="" style="endArrow=none;html=1;fontSize=14;entryX=0.5;entryY=1;entryDx=0;entryDy=0;" parent="1" target="98" edge="1">
                    <mxGeometry width="50" height="50" relative="1" as="geometry">
                        <mxPoint x="120" y="930" as="sourcePoint"/>
                        <mxPoint x="140" y="930" as="targetPoint"/>
                    </mxGeometry>
                </mxCell>
                <mxCell id="110" value="&lt;font style=&quot;font-size: 13px&quot;&gt;所有病人的治療名單&lt;/font&gt;" style="rounded=0;whiteSpace=wrap;html=1;fontSize=14;" parent="1" vertex="1">
                    <mxGeometry x="270" y="910" width="120" height="60" as="geometry"/>
                </mxCell>
                <mxCell id="111" value="1" style="text;html=1;align=center;verticalAlign=middle;resizable=0;points=[];autosize=1;strokeColor=none;fillColor=none;fontSize=13;" parent="1" vertex="1">
                    <mxGeometry x="100" y="910" width="20" height="20" as="geometry"/>
                </mxCell>
                <mxCell id="112" value="1..*" style="text;html=1;align=center;verticalAlign=middle;resizable=0;points=[];autosize=1;strokeColor=none;fillColor=none;fontSize=13;" parent="1" vertex="1">
                    <mxGeometry x="245" y="910" width="30" height="20" as="geometry"/>
                </mxCell>
                <mxCell id="113" value="顯示" style="text;html=1;align=center;verticalAlign=middle;resizable=0;points=[];autosize=1;strokeColor=none;fillColor=none;fontSize=13;" parent="1" vertex="1">
                    <mxGeometry x="170" y="930" width="40" height="20" as="geometry"/>
                </mxCell>
                <mxCell id="114" value="" style="endArrow=none;html=1;fontSize=13;exitX=1;exitY=0.5;exitDx=0;exitDy=0;" parent="1" source="96" edge="1">
                    <mxGeometry width="50" height="50" relative="1" as="geometry">
                        <mxPoint x="235" y="685" as="sourcePoint"/>
                        <mxPoint x="290" y="660" as="targetPoint"/>
                    </mxGeometry>
                </mxCell>
                <mxCell id="115" value="" style="endArrow=none;html=1;fontSize=13;startArrow=none;" parent="1" source="117" edge="1">
                    <mxGeometry width="50" height="50" relative="1" as="geometry">
                        <mxPoint x="290" y="720" as="sourcePoint"/>
                        <mxPoint x="290" y="660" as="targetPoint"/>
                    </mxGeometry>
                </mxCell>
                <mxCell id="116" value="護理師" style="rounded=0;whiteSpace=wrap;html=1;fontSize=13;" parent="1" vertex="1">
                    <mxGeometry x="290" y="720" width="100" height="40" as="geometry"/>
                </mxCell>
                <mxCell id="117" value="包含" style="text;html=1;align=center;verticalAlign=middle;resizable=0;points=[];autosize=1;strokeColor=none;fillColor=none;fontSize=13;" parent="1" vertex="1">
                    <mxGeometry x="270" y="660" width="40" height="20" as="geometry"/>
                </mxCell>
                <mxCell id="118" value="" style="endArrow=none;html=1;fontSize=13;" parent="1" target="117" edge="1">
                    <mxGeometry width="50" height="50" relative="1" as="geometry">
                        <mxPoint x="290" y="720" as="sourcePoint"/>
                        <mxPoint x="290" y="660" as="targetPoint"/>
                    </mxGeometry>
                </mxCell>
                <mxCell id="119" value="1" style="text;html=1;align=center;verticalAlign=middle;resizable=0;points=[];autosize=1;strokeColor=none;fillColor=none;fontSize=13;" parent="1" vertex="1">
                    <mxGeometry x="180" y="640" width="20" height="20" as="geometry"/>
                </mxCell>
                <mxCell id="120" value="1..*" style="text;html=1;align=center;verticalAlign=middle;resizable=0;points=[];autosize=1;strokeColor=none;fillColor=none;fontSize=13;" parent="1" vertex="1">
                    <mxGeometry x="285" y="700" width="30" height="20" as="geometry"/>
                </mxCell>
                <mxCell id="121" value="" style="endArrow=none;html=1;fontSize=13;exitX=1;exitY=1;exitDx=0;exitDy=0;" parent="1" source="96" edge="1">
                    <mxGeometry width="50" height="50" relative="1" as="geometry">
                        <mxPoint x="200" y="730" as="sourcePoint"/>
                        <mxPoint x="230" y="680" as="targetPoint"/>
                    </mxGeometry>
                </mxCell>
                <mxCell id="122" value="" style="endArrow=none;html=1;fontSize=13;startArrow=none;" parent="1" source="125" edge="1">
                    <mxGeometry width="50" height="50" relative="1" as="geometry">
                        <mxPoint x="230" y="830" as="sourcePoint"/>
                        <mxPoint x="230" y="680" as="targetPoint"/>
                    </mxGeometry>
                </mxCell>
                <mxCell id="123" value="" style="endArrow=none;html=1;fontSize=13;" parent="1" edge="1">
                    <mxGeometry width="50" height="50" relative="1" as="geometry">
                        <mxPoint x="230" y="830" as="sourcePoint"/>
                        <mxPoint x="290" y="830" as="targetPoint"/>
                    </mxGeometry>
                </mxCell>
                <mxCell id="124" value="醫師" style="rounded=0;whiteSpace=wrap;html=1;fontSize=13;" parent="1" vertex="1">
                    <mxGeometry x="290" y="810" width="100" height="40" as="geometry"/>
                </mxCell>
                <mxCell id="125" value="包含" style="text;html=1;align=center;verticalAlign=middle;resizable=0;points=[];autosize=1;strokeColor=none;fillColor=none;fontSize=13;" parent="1" vertex="1">
                    <mxGeometry x="210" y="770" width="40" height="20" as="geometry"/>
                </mxCell>
                <mxCell id="126" value="" style="endArrow=none;html=1;fontSize=13;" parent="1" target="125" edge="1">
                    <mxGeometry width="50" height="50" relative="1" as="geometry">
                        <mxPoint x="230" y="830" as="sourcePoint"/>
                        <mxPoint x="230" y="680" as="targetPoint"/>
                    </mxGeometry>
                </mxCell>
                <mxCell id="127" value="1" style="text;html=1;align=center;verticalAlign=middle;resizable=0;points=[];autosize=1;strokeColor=none;fillColor=none;fontSize=13;" parent="1" vertex="1">
                    <mxGeometry x="180" y="680" width="20" height="20" as="geometry"/>
                </mxCell>
                <mxCell id="128" value="1..*" style="text;html=1;align=center;verticalAlign=middle;resizable=0;points=[];autosize=1;strokeColor=none;fillColor=none;fontSize=13;" parent="1" vertex="1">
                    <mxGeometry x="255" y="830" width="30" height="20" as="geometry"/>
                </mxCell>
                <mxCell id="129" value="" style="endArrow=none;html=1;fontSize=13;entryX=0;entryY=0.5;entryDx=0;entryDy=0;" parent="1" target="116" edge="1">
                    <mxGeometry width="50" height="50" relative="1" as="geometry">
                        <mxPoint x="200" y="740" as="sourcePoint"/>
                        <mxPoint x="270" y="730" as="targetPoint"/>
                    </mxGeometry>
                </mxCell>
                <mxCell id="130" value="" style="endArrow=none;html=1;fontSize=13;startArrow=none;" parent="1" source="133" edge="1">
                    <mxGeometry width="50" height="50" relative="1" as="geometry">
                        <mxPoint x="200" y="870" as="sourcePoint"/>
                        <mxPoint x="200" y="740" as="targetPoint"/>
                    </mxGeometry>
                </mxCell>
                <mxCell id="131" value="" style="endArrow=none;html=1;fontSize=13;exitX=1;exitY=0;exitDx=0;exitDy=0;" parent="1" source="98" edge="1">
                    <mxGeometry width="50" height="50" relative="1" as="geometry">
                        <mxPoint x="220" y="910" as="sourcePoint"/>
                        <mxPoint x="200" y="870" as="targetPoint"/>
                    </mxGeometry>
                </mxCell>
                <mxCell id="132" value="1" style="text;html=1;align=center;verticalAlign=middle;resizable=0;points=[];autosize=1;strokeColor=none;fillColor=none;fontSize=13;" parent="1" vertex="1">
                    <mxGeometry x="250" y="720" width="20" height="20" as="geometry"/>
                </mxCell>
                <mxCell id="133" value="分配" style="text;html=1;align=center;verticalAlign=middle;resizable=0;points=[];autosize=1;strokeColor=none;fillColor=none;fontSize=13;" parent="1" vertex="1">
                    <mxGeometry x="180" y="830" width="40" height="20" as="geometry"/>
                </mxCell>
                <mxCell id="134" value="" style="endArrow=none;html=1;fontSize=13;" parent="1" target="133" edge="1">
                    <mxGeometry width="50" height="50" relative="1" as="geometry">
                        <mxPoint x="200" y="870" as="sourcePoint"/>
                        <mxPoint x="200" y="740" as="targetPoint"/>
                    </mxGeometry>
                </mxCell>
                <mxCell id="136" value="1" style="text;html=1;align=center;verticalAlign=middle;resizable=0;points=[];autosize=1;strokeColor=none;fillColor=none;fontSize=13;" parent="1" vertex="1">
                    <mxGeometry x="180" y="870" width="20" height="20" as="geometry"/>
                </mxCell>
                <mxCell id="137" value="" style="endArrow=none;html=1;fontSize=13;" parent="1" edge="1">
                    <mxGeometry width="50" height="50" relative="1" as="geometry">
                        <mxPoint x="245" y="850" as="sourcePoint"/>
                        <mxPoint x="295" y="850" as="targetPoint"/>
                    </mxGeometry>
                </mxCell>
                <mxCell id="138" value="" style="endArrow=none;html=1;fontSize=13;exitX=0;exitY=0;exitDx=0;exitDy=0;exitPerimeter=0;" parent="1" source="112" edge="1">
                    <mxGeometry width="50" height="50" relative="1" as="geometry">
                        <mxPoint x="245" y="900" as="sourcePoint"/>
                        <mxPoint x="245" y="850" as="targetPoint"/>
                    </mxGeometry>
                </mxCell>
                <mxCell id="139" value="" style="endArrow=none;html=1;fontSize=13;exitX=1;exitY=1;exitDx=0;exitDy=0;" parent="1" source="98" edge="1">
                    <mxGeometry width="50" height="50" relative="1" as="geometry">
                        <mxPoint x="180" y="930" as="sourcePoint"/>
                        <mxPoint x="244" y="909" as="targetPoint"/>
                    </mxGeometry>
                </mxCell>
                <mxCell id="140" value="分配" style="text;html=1;align=center;verticalAlign=middle;resizable=0;points=[];autosize=1;strokeColor=none;fillColor=none;fontSize=13;" parent="1" vertex="1">
                    <mxGeometry x="220" y="890" width="40" height="20" as="geometry"/>
                </mxCell>
                <mxCell id="141" value="1" style="text;html=1;align=center;verticalAlign=middle;resizable=0;points=[];autosize=1;strokeColor=none;fillColor=none;fontSize=13;" parent="1" vertex="1">
                    <mxGeometry x="270" y="850" width="20" height="20" as="geometry"/>
                </mxCell>
                <mxCell id="142" value="1" style="text;html=1;align=center;verticalAlign=middle;resizable=0;points=[];autosize=1;strokeColor=none;fillColor=none;fontSize=13;" parent="1" vertex="1">
                    <mxGeometry x="180" y="890" width="20" height="20" as="geometry"/>
                </mxCell>
                <mxCell id="144" value="" style="endArrow=none;html=1;fontSize=13;exitX=1;exitY=0.5;exitDx=0;exitDy=0;startArrow=none;entryX=0;entryY=0.5;entryDx=0;entryDy=0;" parent="1" source="146" target="145" edge="1">
                    <mxGeometry width="50" height="50" relative="1" as="geometry">
                        <mxPoint x="410" y="960" as="sourcePoint"/>
                        <mxPoint x="560" y="940" as="targetPoint"/>
                    </mxGeometry>
                </mxCell>
                <mxCell id="145" value="&lt;font style=&quot;font-size: 17px&quot;&gt;病人&lt;/font&gt;" style="rounded=0;whiteSpace=wrap;html=1;fontSize=13;" parent="1" vertex="1">
                    <mxGeometry x="660" y="910" width="120" height="60" as="geometry"/>
                </mxCell>
                <mxCell id="146" value="&lt;font style=&quot;font-size: 12px&quot;&gt;列出&lt;/font&gt;" style="text;html=1;align=center;verticalAlign=middle;resizable=0;points=[];autosize=1;strokeColor=none;fillColor=none;fontSize=17;" parent="1" vertex="1">
                    <mxGeometry x="510" y="925" width="40" height="30" as="geometry"/>
                </mxCell>
                <mxCell id="147" value="" style="endArrow=none;html=1;fontSize=13;exitX=1;exitY=0.5;exitDx=0;exitDy=0;" parent="1" source="110" target="146" edge="1">
                    <mxGeometry width="50" height="50" relative="1" as="geometry">
                        <mxPoint x="390" y="940" as="sourcePoint"/>
                        <mxPoint x="560" y="940" as="targetPoint"/>
                    </mxGeometry>
                </mxCell>
                <mxCell id="148" value="1" style="text;html=1;align=center;verticalAlign=middle;resizable=0;points=[];autosize=1;strokeColor=none;fillColor=none;fontSize=12;" parent="1" vertex="1">
                    <mxGeometry x="390" y="920" width="20" height="20" as="geometry"/>
                </mxCell>
                <mxCell id="149" value="1..*" style="text;html=1;align=center;verticalAlign=middle;resizable=0;points=[];autosize=1;strokeColor=none;fillColor=none;fontSize=12;" parent="1" vertex="1">
                    <mxGeometry x="630" y="920" width="30" height="20" as="geometry"/>
                </mxCell>
                <mxCell id="150" value="" style="endArrow=classic;html=1;fontSize=12;exitX=0.5;exitY=0;exitDx=0;exitDy=0;entryX=0.5;entryY=1;entryDx=0;entryDy=0;" parent="1" source="145" edge="1">
                    <mxGeometry width="50" height="50" relative="1" as="geometry">
                        <mxPoint x="595" y="870" as="sourcePoint"/>
                        <mxPoint x="720" y="830" as="targetPoint"/>
                    </mxGeometry>
                </mxCell>
                <mxCell id="204" value="非編制人員" style="swimlane;fontStyle=0;childLayout=stackLayout;horizontal=1;startSize=30;horizontalStack=0;resizeParent=1;resizeParentMax=0;resizeLast=0;collapsible=1;marginBottom=0;fontSize=12;" parent="1" vertex="1">
                    <mxGeometry x="650" y="740" width="140" height="90" as="geometry"/>
                </mxCell>
                <mxCell id="215" value="" style="shape=partialRectangle;whiteSpace=wrap;html=1;bottom=1;right=1;left=1;top=0;fillColor=none;routingCenterX=-0.5;fontSize=12;rotation=-90;" parent="1" vertex="1">
                    <mxGeometry x="366" y="762" width="96" height="50" as="geometry"/>
                </mxCell>
                <mxCell id="218" value="" style="endArrow=classic;html=1;fontSize=12;exitX=0.5;exitY=1;exitDx=0;exitDy=0;" parent="1" source="215" edge="1">
                    <mxGeometry width="50" height="50" relative="1" as="geometry">
                        <mxPoint x="520" y="770" as="sourcePoint"/>
                        <mxPoint x="500" y="787" as="targetPoint"/>
                    </mxGeometry>
                </mxCell>
                <mxCell id="219" value="編制人員" style="swimlane;fontStyle=0;childLayout=stackLayout;horizontal=1;startSize=30;horizontalStack=0;resizeParent=1;resizeParentMax=0;resizeLast=0;collapsible=1;marginBottom=0;fontSize=12;" parent="1" vertex="1">
                    <mxGeometry x="500" y="740" width="100" height="90" as="geometry"/>
                </mxCell>
                <mxCell id="221" value="" style="shape=partialRectangle;whiteSpace=wrap;html=1;bottom=1;right=1;left=1;top=0;fillColor=none;routingCenterX=-0.5;fontSize=12;rotation=-180;" parent="1" vertex="1">
                    <mxGeometry x="550" y="680" width="170" height="60" as="geometry"/>
                </mxCell>
                <mxCell id="222" value="" style="endArrow=classic;html=1;fontSize=12;exitX=0.5;exitY=1;exitDx=0;exitDy=0;" parent="1" source="221" edge="1">
                    <mxGeometry width="50" height="50" relative="1" as="geometry">
                        <mxPoint x="430" y="710" as="sourcePoint"/>
                        <mxPoint x="635" y="610" as="targetPoint"/>
                    </mxGeometry>
                </mxCell>
                <mxCell id="223" value="人員名單" style="swimlane;fontStyle=0;childLayout=stackLayout;horizontal=1;startSize=40;horizontalStack=0;resizeParent=1;resizeParentMax=0;resizeLast=0;collapsible=1;marginBottom=0;fontSize=12;" parent="1" vertex="1">
                    <mxGeometry x="565" y="520" width="140" height="90" as="geometry"/>
                </mxCell>
                <mxCell id="233" value="" style="endArrow=none;html=1;fontSize=12;" parent="1" edge="1">
                    <mxGeometry width="50" height="50" relative="1" as="geometry">
                        <mxPoint x="500" y="800" as="sourcePoint"/>
                        <mxPoint x="600" y="800" as="targetPoint"/>
                    </mxGeometry>
                </mxCell>
                <mxCell id="234" value="" style="endArrow=none;html=1;fontSize=12;" parent="1" edge="1">
                    <mxGeometry width="50" height="50" relative="1" as="geometry">
                        <mxPoint x="650" y="800" as="sourcePoint"/>
                        <mxPoint x="790" y="800" as="targetPoint"/>
                    </mxGeometry>
                </mxCell>
                <mxCell id="235" value="" style="endArrow=none;html=1;fontSize=12;entryX=1;entryY=0.75;entryDx=0;entryDy=0;exitX=0;exitY=0.75;exitDx=0;exitDy=0;" parent="1" source="223" target="223" edge="1">
                    <mxGeometry width="50" height="50" relative="1" as="geometry">
                        <mxPoint x="570" y="580" as="sourcePoint"/>
                        <mxPoint x="700" y="580" as="targetPoint"/>
                        <Array as="points"/>
                    </mxGeometry>
                </mxCell>
            </root>
        </mxGraphModel>
    </diagram>
</mxfile>